<svg width="86" height="12" viewBox="0 0 86 12" fill="none" xmlns="http://www.w3.org/2000/svg">
<path d="M4.42864 10.132C3.24064 10.132 2.32398 9.81667 1.67864 9.186C1.04064 8.548 0.721645 7.56167 0.721645 6.227C0.721645 5.33967 0.875645 4.61 1.18364 4.038C1.49164 3.45867 1.93898 3.02967 2.52564 2.751C3.11231 2.465 3.81631 2.322 4.63764 2.322C5.12898 2.322 5.59098 2.377 6.02365 2.487C6.45631 2.597 6.83764 2.76567 7.16764 2.993C7.50498 3.22033 7.76531 3.50633 7.94864 3.851C8.13931 4.18833 8.23464 4.59167 8.23464 5.061H6.57364C6.57364 4.83367 6.52231 4.632 6.41964 4.456C6.32431 4.28 6.18864 4.13333 6.01264 4.016C5.83664 3.89867 5.63498 3.81067 5.40764 3.752C5.18031 3.69333 4.94198 3.664 4.69264 3.664C4.31131 3.664 3.97764 3.71533 3.69164 3.818C3.40564 3.91333 3.16731 4.06367 2.97664 4.269C2.79331 4.467 2.65398 4.71633 2.55864 5.017C2.46331 5.31767 2.41564 5.666 2.41564 6.062V6.392C2.41564 6.942 2.49631 7.393 2.65764 7.745C2.81898 8.097 3.06098 8.361 3.38364 8.537C3.70631 8.70567 4.10598 8.79 4.58264 8.79C4.97864 8.79 5.32698 8.73133 5.62764 8.614C5.93564 8.48933 6.17398 8.31333 6.34264 8.086C6.51864 7.85867 6.60664 7.58 6.60664 7.25V7.173H4.35164V5.919H8.23464V10H7.15664L7.01364 9.186C6.79365 9.39867 6.55531 9.57467 6.29864 9.714C6.04931 9.85333 5.77064 9.956 5.46264 10.022C5.15464 10.0953 4.80998 10.132 4.42864 10.132ZM9.81598 10V2.454H11.455V10H9.81598ZM13.1246 10V2.454H17.2606C17.8179 2.454 18.2799 2.553 18.6466 2.751C19.0206 2.949 19.2992 3.22767 19.4826 3.587C19.6659 3.939 19.7576 4.346 19.7576 4.808C19.7576 5.29933 19.6476 5.73567 19.4276 6.117C19.2076 6.491 18.8886 6.777 18.4706 6.975L20.0106 10H18.1956L16.8646 7.25H14.7636V10H13.1246ZM14.7636 5.952H17.0406C17.3706 5.952 17.6272 5.853 17.8106 5.655C17.9939 5.44967 18.0856 5.17467 18.0856 4.83C18.0856 4.61 18.0452 4.423 17.9646 4.269C17.8839 4.10767 17.7666 3.98667 17.6126 3.906C17.4586 3.82533 17.2679 3.785 17.0406 3.785H14.7636V5.952ZM21.1597 10V2.454H22.7987V8.603H26.6047V10H21.1597ZM28.4865 10V3.829H26.0665V2.454H32.5675V3.829H30.1365V10H28.4865ZM31.9806 10L34.8846 2.454H36.9086L39.8126 10H38.0416L37.5026 8.515H34.2136L33.6746 10H31.9806ZM34.6866 7.195H37.0296L36.3586 5.336C36.3292 5.25533 36.2926 5.16 36.2486 5.05C36.2119 4.93267 36.1716 4.80433 36.1276 4.665C36.0836 4.52567 36.0396 4.39 35.9956 4.258C35.9589 4.11867 35.9222 3.994 35.8856 3.884H35.8196C35.7829 4.02333 35.7352 4.18833 35.6766 4.379C35.6179 4.56233 35.5592 4.742 35.5006 4.918C35.4419 5.08667 35.3942 5.226 35.3576 5.336L34.6866 7.195ZM40.7105 10V2.454H42.3495V8.603H46.1555V10H40.7105ZM47.2095 10V2.454H48.8485V5.886L52.0605 2.454H54.0845L51.2025 5.523L54.1395 10H52.1815L50.0695 6.656L48.8485 7.756V10H47.2095Z" fill="white"/>
<path d="M71.3902 10V2.454H74.1072C74.9138 2.454 75.5958 2.586 76.1532 2.85C76.7178 3.10667 77.1468 3.51367 77.4402 4.071C77.7408 4.621 77.8912 5.33967 77.8912 6.227C77.8912 7.09967 77.7408 7.81467 77.4402 8.372C77.1468 8.92933 76.7178 9.34 76.1532 9.604C75.5958 9.868 74.9138 10 74.1072 10H71.3902ZM72.2592 9.252H74.0742C74.5215 9.252 74.9248 9.20067 75.2842 9.098C75.6435 8.988 75.9515 8.81933 76.2082 8.592C76.4648 8.35733 76.6592 8.05667 76.7912 7.69C76.9232 7.32333 76.9892 6.87967 76.9892 6.359V6.128C76.9892 5.59267 76.9232 5.14167 76.7912 4.775C76.6592 4.401 76.4648 4.10033 76.2082 3.873C75.9588 3.63833 75.6545 3.46967 75.2952 3.367C74.9358 3.257 74.5288 3.202 74.0742 3.202H72.2592V9.252ZM79.5005 10V2.454H80.3695V6.678L84.4285 2.454H85.5285L82.6685 5.446L85.6495 10H84.6045L82.0525 6.073L80.3695 7.712V10H79.5005Z" fill="white"/>
<path d="M62 5L63.5 6.5L65 5" stroke="white" stroke-width="3" stroke-linecap="round"/>
</svg>
